<svg id="Layer_1" enable-background="new 0 0 512 512" height="512" viewBox="0 0 512 512" width="512" xmlns="http://www.w3.org/2000/svg"><g><path d="m320.267 415.6h-128.534c-8.284 0-15-6.716-15-15 0-70.32-120.5-107.641-120.5-241 0-140.483 146.416-159.6 199.767-159.6 53.204 0 199.767 19.227 199.767 159.6 0 133.41-120.5 170.614-120.5 241 0 8.284-6.716 15-15 15z" fill="#ff0"/><path d="m335.267 400.6c0-70.386 120.5-107.59 120.5-241 0-140.372-146.563-159.6-199.767-159.6v415.6h64.267c8.284 0 15-6.716 15-15z" fill="#ffd700"/><path d="m256 512c-8.284 0-15-6.716-15-15v-32.133c0-8.284 6.716-15 15-15s15 6.716 15 15v32.133c0 8.284-6.716 15-15 15z" fill="#000032"/><path d="m256 351.333c-8.284 0-15-6.716-15-15v-56.233c0-8.284 6.716-15 15-15s15 6.716 15 15v56.233c0 8.285-6.716 15-15 15z" fill="#00be00"/><path d="m256 265.1c8.284 0 15 6.716 15 15v56.233c0 8.284-6.716 15-15 15z" fill="#008200"/><path d="m376.5 144.6c-52.416 0-97.974 29.919-120.5 73.574-22.526-43.656-68.084-73.574-120.5-73.574-8.284 0-15 6.716-15 15 0 74.715 60.785 135.5 135.5 135.5s135.5-60.785 135.5-135.5c0-8.284-6.716-15-15-15z" fill="#73df00"/><path d="m256 295.1c74.715 0 135.5-60.785 135.5-135.5 0-8.284-6.716-15-15-15-52.416 0-97.974 29.919-120.5 73.574z" fill="#00be00"/><path d="m288.134 479.867h-64.267c-25.989 0-47.133-21.144-47.133-47.133v-32.134h158.533v32.133c0 25.99-21.144 47.134-47.133 47.134z" fill="#737781"/><path d="m335.267 432.733v-32.133h-79.267v79.267h32.134c25.989 0 47.133-21.144 47.133-47.134z" fill="#444956"/></g></svg>