<svg id="Capa_1" enable-background="new 0 0 512 512" height="512" viewBox="0 0 512 512" width="512" xmlns="http://www.w3.org/2000/svg"><g><g><g><path d="m427.96 272.862c-4.143 0-7.5-3.358-7.5-7.5v-8.659c0-4.142 3.357-7.5 7.5-7.5s7.5 3.358 7.5 7.5v8.659c0 4.142-3.358 7.5-7.5 7.5zm0-30.306c-4.143 0-7.5-3.358-7.5-7.5v-8.659c0-4.142 3.357-7.5 7.5-7.5s7.5 3.358 7.5 7.5v8.659c0 4.142-3.358 7.5-7.5 7.5z" fill="#569acc"/></g><path d="m427.96 279.51c-4.143 0-7.5 3.358-7.5 7.5v5h13.332l1.668-1v-4c0-4.142-3.357-7.5-7.5-7.5z" fill="#569acc"/></g><g fill="#569acc"><path d="m258.281 109.831h-4l-1 1.811v13.189h5c4.143 0 7.5-3.358 7.5-7.5s-3.357-7.5-7.5-7.5z"/><path d="m288.588 109.831h-8.659c-4.143 0-7.5 3.358-7.5 7.5s3.357 7.5 7.5 7.5h8.659c4.143 0 7.5-3.358 7.5-7.5s-3.358-7.5-7.5-7.5z"/><path d="m318.894 109.831h-8.658c-4.143 0-7.5 3.358-7.5 7.5s3.357 7.5 7.5 7.5h8.658c4.143 0 7.5-3.358 7.5-7.5s-3.358-7.5-7.5-7.5z"/></g><g><path d="m424.767 351.563c2.496-.232 4.946-.209 7.327.046 1.806.193 3.366-1.258 3.366-3.074v-57.525h-51.824c-1.917 0-3.359 1.724-3.039 3.615.598 3.528.689 7.229.168 11.034-2.339 17.063-16.717 30.283-33.915 31.198-20.911 1.112-38.214-15.515-38.214-36.183 0-2.074.178-4.107.516-6.085.32-1.875-1.142-3.578-3.044-3.578h-51.825v61.706c-4.58-1.264-9.514-1.673-14.638-.973-17.062 2.333-30.285 16.703-31.207 33.899-1.122 20.919 15.508 38.233 36.182 38.233 3.348 0 6.585-.463 9.663-1.313v49.627h169.1c6.671 0 12.079-5.408 12.079-12.079v-33.37c0-1.83-1.58-3.261-3.399-3.068-1.264.134-2.548.203-3.848.203-20.722 0-37.381-17.394-36.174-38.378 1.03-17.944 14.832-32.27 32.726-33.935z" fill="#01c0fa"/></g><path d="m424.767 351.563c2.497-.232 4.946-.208 7.327.046 1.806.193 3.366-1.258 3.366-3.074v-57.525h-51.824c-1.917 0-3.359 1.724-3.039 3.615.598 3.528.689 7.229.168 11.034-2.339 17.063-16.717 30.283-33.915 31.198-20.911 1.112-38.215-15.515-38.215-36.183 0-2.074.178-4.107.516-6.084.32-1.875-1.142-3.578-3.044-3.578h-51.825l-1 1.133v59.283c-2.844-.679-5.752-1.023-8.665-1.023-1.172 0-2.361.056-3.534.167-18.281 1.73-32.748 16.855-33.653 35.183-.509 10.314 3.119 20.1 10.216 27.555 7.1 7.459 16.68 11.567 26.974 11.567 2.912 0 5.82-.344 8.663-1.023v47.214l1 1.123h169.1c6.671 0 12.079-5.408 12.079-12.078v-33.37c0-1.83-1.58-3.261-3.399-3.068-1.264.134-2.548.203-3.848.203-20.722 0-37.381-17.394-36.174-38.378 1.03-17.946 14.832-32.272 32.726-33.937z" fill="#01d0fb"/><g><g><path d="m254.281 291.01v61.706c-4.58-1.264-9.514-1.674-14.638-.973-17.061 2.333-30.285 16.703-31.207 33.899-1.122 20.919 15.508 38.233 36.182 38.233 3.348 0 6.586-.463 9.663-1.313v49.627h30.697v-181.179z" fill="#01c0fa"/></g></g><path d="m241.176 351.566c4.575-.433 8.984.012 13.106 1.15v-61.706l-2.852-1h-54.129l.35 1.266c.848 3.07 1.277 6.232 1.277 9.397 0 19.429-15.807 35.236-35.235 35.236-.644 0-1.292-.018-1.943-.052-16.819-.903-30.682-13.665-32.961-30.344-.657-4.797-.339-9.586.945-14.236l.35-1.266h-54.173l-2.808 1v49.36c.62-.015 1.236-.047 1.86-.047 40.783 0 73.963 33.179 73.963 73.962 0 23.434-10.968 44.342-28.025 57.903h133.38v-49.627c-3.077.85-6.315 1.313-9.663 1.313-20.621 0-37.219-17.225-36.19-38.072.88-17.826 14.98-32.556 32.748-34.237z" fill="#fac600"/><path d="m74.963 340.323c11.785 0 22.927 2.784 32.824 7.708v-57.021h-34.684v49.36c.62-.016 1.236-.047 1.86-.047z" fill="#e8b800"/><g><path d="m239.644 158.486c3.801-.52 7.498-.429 11.023.169 1.89.321 3.615-1.121 3.615-3.039v-45.785h-169.1c-6.671 0-12.079 5.408-12.079 12.079v38.306c-4.757-1.682-9.964-2.41-15.4-1.92-17.638 1.587-31.724 16.059-32.84 33.733-1.331 21.078 15.37 38.588 36.161 38.588 4.236 0 8.3-.734 12.079-2.07v62.463h55.667c-1.264 4.58-1.673 9.514-.973 14.638 2.333 17.062 16.703 30.285 33.899 31.207 20.919 1.122 38.233-15.508 38.233-36.182 0-3.348-.463-6.585-1.313-9.663h55.667v-57.864c0-1.902-1.703-3.364-3.578-3.044-1.978.338-4.01.515-6.085.515-20.674 0-37.304-17.314-36.182-38.233.921-17.195 14.144-31.566 31.206-33.898z" fill="#fb2b3a"/></g><g><path d="m239.644 158.486c3.801-.52 7.498-.429 11.023.169 1.89.321 3.615-1.121 3.615-3.039v-45.785h-169.1c-6.671 0-12.079 5.408-12.079 12.079v38.306c-4.757-1.682-9.964-2.41-15.4-1.92-17.638 1.587-31.724 16.059-32.84 33.733-1.331 21.078 15.37 38.588 36.161 38.588 4.236 0 8.3-.734 12.079-2.07v62.463h55.667c-1.264 4.58-1.673 9.514-.973 14.638 2.333 17.062 16.703 30.285 33.899 31.207 20.919 1.122 38.233-15.508 38.233-36.182 0-3.348-.463-6.585-1.313-9.663h55.667v-57.864c0-1.902-1.703-3.364-3.578-3.044-1.978.338-4.01.515-6.085.515-20.674 0-37.304-17.314-36.182-38.233.921-17.195 14.144-31.566 31.206-33.898z" fill="#fb2b3a"/></g><g><g><path d="m119.865 109.831h-34.684c-6.671 0-12.078 5.408-12.078 12.079v38.306c-4.757-1.682-9.964-2.41-15.4-1.92-17.638 1.587-31.724 16.059-32.84 33.733-1.331 21.078 15.37 38.588 36.161 38.588 4.236 0 8.3-.734 12.079-2.07v62.463h34.684v-169.1c0-6.671 5.407-12.078 12.078-12.079z" fill="#e41f2d"/></g></g><g><g><circle cx="74.963" cy="414.285" fill="#4fc123" r="74.963"/></g><g><path d="m34.992 414.285c0-35.374 24.509-65.005 57.467-72.888-5.615-1.343-11.469-2.074-17.496-2.074-41.401-.001-74.963 33.561-74.963 74.962s33.562 74.963 74.963 74.963c6.027 0 11.881-.731 17.496-2.074-32.958-7.884-57.467-37.515-57.467-72.889z" fill="#47a920"/></g><g><path d="m71.087 443.304c-1.989 0-3.896-.79-5.304-2.197l-24.646-24.646c-2.929-2.929-2.929-7.678 0-10.606 2.93-2.929 7.678-2.929 10.607 0l19.342 19.342 32.896-32.897c2.93-2.929 7.678-2.929 10.607 0s2.929 7.678 0 10.606l-38.2 38.201c-1.406 1.407-3.313 2.197-5.302 2.197z" fill="#fff"/></g></g><g><path d="m503.786 63.554c1.645-.111 3.264-.09 4.849.051 1.809.162 3.365-1.255 3.365-3.071v-27.599c0-5.624-4.559-10.183-10.183-10.183h-139.466c-1.707 0-3.091 1.384-3.091 3.091v38.747c-3.474-.959-7.191-1.335-11.049-.97-14.979 1.417-26.865 13.835-27.607 28.862-.867 17.575 13.125 32.096 30.51 32.096 2.822 0 5.552-.391 8.146-1.107v48.93c0 1.707 1.384 3.091 3.091 3.091h43.838c-.96 3.476-1.335 7.195-.969 11.054 1.421 14.982 13.847 26.868 28.879 27.602 17.567.858 32.079-13.132 32.079-30.51 0-2.822-.391-5.552-1.107-8.146h43.838c1.707 0 3.091-1.384 3.091-3.091v-44.87c0-1.83-1.578-3.232-3.4-3.071-.893.079-1.796.119-2.709.119-17.47 0-31.514-14.664-30.496-32.355.876-15.219 13.182-27.644 28.391-28.67z" fill="#4fc123"/></g><g><path d="m503.786 63.554c1.645-.111 3.264-.09 4.849.051 1.809.162 3.365-1.255 3.365-3.071v-27.599c0-5.624-4.559-10.183-10.183-10.183h-139.466c-1.707 0-3.091 1.384-3.091 3.091v38.747c-3.474-.959-7.191-1.335-11.049-.97-14.979 1.417-26.865 13.835-27.607 28.862-.867 17.575 13.125 32.096 30.51 32.096 2.822 0 5.552-.391 8.146-1.107v48.93c0 1.707 1.384 3.091 3.091 3.091h43.838c-.96 3.476-1.335 7.195-.969 11.054 1.421 14.982 13.847 26.868 28.879 27.602 17.567.858 32.079-13.132 32.079-30.51 0-2.822-.391-5.552-1.107-8.146h43.838c1.707 0 3.091-1.384 3.091-3.091v-44.87c0-1.83-1.578-3.232-3.4-3.071-.893.079-1.796.119-2.709.119-17.47 0-31.514-14.664-30.496-32.355.876-15.219 13.182-27.644 28.391-28.67z" fill="#4fc123"/></g><g><g><path d="m390.681 172.401v-146.558c0-1.707 1.384-3.091 3.091-3.091h-31.421c-1.707 0-3.091 1.384-3.091 3.091v38.747c-3.475-.96-7.191-1.335-11.049-.97-14.979 1.417-26.865 13.835-27.607 28.862-.867 17.575 13.125 32.096 30.51 32.096 2.822 0 5.552-.391 8.146-1.107v48.93c0 1.707 1.384 3.091 3.091 3.091h31.421c-1.707 0-3.091-1.384-3.091-3.091z" fill="#47a920"/></g></g></g></svg>